<svg xmlns="http://www.w3.org/2000/svg" version="1" width="24" height="24" viewBox="0 0 24 24">
    <path d="M8,2.4c0.1,0,0.1,0,0.2,0.1c0.1,0.1,0.4,0.4,0.4,0.6c0,0.2,0,0.7,0.1,1.1C8.9,4.7,9.1,6,9.4,6.7 c0.3,0.7,0.4,1.1,0.1,1.5c-0.3,0.5-2.2,2.4-2.2,2.4s0.5,1,1.1,1.6c0.5,0.7,1.3,1.7,2.3,2.5c1,0.9,2.1,1.7,3.2,2.2 c1.1-1.1,2-2,2.3-2.2c0.3-0.2,0.3-0.3,0.8-0.1c0.5,0.2,1.2,0.5,2,0.6c0.7,0.1,1.5,0.2,2,0.3c0.5,0.1,0.5,0.1,0.6,0.3 c0.2,0.2,0.3,0.5,0.3,0.6c0,0.1,0,0.4,0,1.4c0,1,0,2.4,0,2.7c0,0.3,0,0.3-0.1,0.5c-0.1,0.2-0.2,0.7-0.2,0.7c0,0.1-0.5,0.3-0.8,0.3 c-0.3,0-1.4,0-2.1-0.1c-0.7-0.1-2.6-0.5-3.3-0.8c-0.7-0.2-3-1-5.8-3.1C7,16,5.1,13.3,4,11.1S2.3,6.5,2.2,5.3C2,4.1,2,3.6,2,3.3 c0.1-0.3,0.4-0.6,0.6-0.7c0.2-0.1,0.5-0.2,0.8-0.2c0.3,0,1.1,0,2.2,0C6.7,2.4,8,2.4,8,2.4z"></path>
</svg>